<svg xmlns="http://www.w3.org/2000/svg" viewBox="0 0 16 16" shape-rendering="crispEdges" role="img" aria-labelledby="title desc">
  <title id="title">Noter favicon</title>
  <desc id="desc">Canvas-filling pixel folded note mark for small browser icons.</desc>
  <rect x="2" y="1" width="7" height="1" fill="#25221F"/>
  <rect x="1" y="2" width="1" height="1" fill="#25221F"/>
  <rect x="2" y="2" width="6" height="1" fill="#FDFCF9"/>
  <rect x="8" y="2" width="1" height="1" fill="#DBA756"/>
  <rect x="9" y="2" width="1" height="1" fill="#25221F"/>
  <rect x="1" y="3" width="1" height="1" fill="#25221F"/>
  <rect x="2" y="3" width="5" height="1" fill="#FDFCF9"/>
  <rect x="7" y="3" width="1" height="1" fill="#F2E0BE"/>
  <rect x="8" y="3" width="1" height="1" fill="#DBA756"/>
  <rect x="9" y="3" width="1" height="1" fill="#25221F"/>
  <rect x="1" y="4" width="1" height="1" fill="#25221F"/>
  <rect x="2" y="4" width="5" height="1" fill="#FDFCF9"/>
  <rect x="7" y="4" width="2" height="1" fill="#F2E0BE"/>
  <rect x="9" y="4" width="1" height="1" fill="#DBA756"/>
  <rect x="10" y="4" width="1" height="1" fill="#25221F"/>
  <rect x="1" y="5" width="1" height="1" fill="#25221F"/>
  <rect x="2" y="5" width="5" height="1" fill="#FDFCF9"/>
  <rect x="7" y="5" width="3" height="1" fill="#DBA756"/>
  <rect x="10" y="5" width="1" height="1" fill="#25221F"/>
  <rect x="1" y="6" width="1" height="1" fill="#25221F"/>
  <rect x="2" y="6" width="9" height="1" fill="#FDFCF9"/>
  <rect x="11" y="6" width="1" height="1" fill="#25221F"/>
  <rect x="1" y="7" width="1" height="1" fill="#25221F"/>
  <rect x="2" y="7" width="1" height="1" fill="#FDFCF9"/>
  <rect x="3" y="7" width="5" height="1" fill="#25221F"/>
  <rect x="8" y="7" width="2" height="1" fill="#FDFCF9"/>
  <rect x="10" y="7" width="1" height="1" fill="#25221F"/>
  <rect x="1" y="8" width="1" height="1" fill="#25221F"/>
  <rect x="2" y="8" width="9" height="1" fill="#FDFCF9"/>
  <rect x="11" y="8" width="1" height="1" fill="#25221F"/>
  <rect x="1" y="9" width="1" height="1" fill="#25221F"/>
  <rect x="2" y="9" width="1" height="1" fill="#FDFCF9"/>
  <rect x="3" y="9" width="4" height="1" fill="#6E685F"/>
  <rect x="7" y="9" width="4" height="1" fill="#FDFCF9"/>
  <rect x="11" y="9" width="1" height="1" fill="#25221F"/>
  <rect x="1" y="10" width="1" height="1" fill="#25221F"/>
  <rect x="2" y="10" width="9" height="1" fill="#FDFCF9"/>
  <rect x="11" y="10" width="1" height="1" fill="#25221F"/>
  <rect x="1" y="11" width="1" height="1" fill="#25221F"/>
  <rect x="2" y="11" width="1" height="1" fill="#FDFCF9"/>
  <rect x="3" y="11" width="5" height="1" fill="#6E685F"/>
  <rect x="8" y="11" width="3" height="1" fill="#FDFCF9"/>
  <rect x="11" y="11" width="1" height="1" fill="#25221F"/>
  <rect x="1" y="12" width="1" height="1" fill="#25221F"/>
  <rect x="2" y="12" width="5" height="1" fill="#FDFCF9"/>
  <rect x="7" y="12" width="1" height="1" fill="#FFB340"/>
  <rect x="8" y="12" width="1" height="1" fill="#FFD28C"/>
  <rect x="9" y="12" width="2" height="1" fill="#FDFCF9"/>
  <rect x="11" y="12" width="1" height="1" fill="#25221F"/>
  <rect x="1" y="13" width="1" height="1" fill="#25221F"/>
  <rect x="2" y="13" width="9" height="1" fill="#FDFCF9"/>
  <rect x="11" y="13" width="1" height="1" fill="#25221F"/>
  <rect x="1" y="14" width="10" height="1" fill="#25221F"/>
  <rect x="11" y="14" width="1" height="1" fill="#D8D1C5"/>
  <rect x="2" y="15" width="9" height="1" fill="#D8D1C5"/>
</svg>
